<svg width="0" height="0" >

	<symbol id="sun" viewBox="0 0 23 23" xmlns="http://www.w3.org/2000/svg" fill='none' stroke='currentColor'>
		<circle cx="11.5" cy="11.5" r="10.5" fill="none"></circle><circle cx="11.5" cy="11.5" r=".9" fill="#1d1d1b"></circle>
	</symbol>

	<symbol id="earth"  viewBox="0 0 23 23" xmlns="http://www.w3.org/2000/svg" stroke='currentColor' fill='none'>
		<circle cx="11.5" cy="11.5" r="10.5"></circle><g stroke-linecap="round" stroke-miterlimit="10"><path d="M11.5 1v20.9"></path><path d="M1 11.5h21"></path></g>
	</symbol>

	<symbol  id="north"  viewBox="0 0 23 23" xmlns="http://www.w3.org/2000/svg" stroke='currentColor' fill='none'>
		<ellipse cx="5.3" cy="19.4" rx="3.2" ry="2.8"></ellipse><path d="M4.4 16.5c-6-5.2-2.6-15 6.2-15.6 9.6-.6 14.8 10.4 7.5 15.9" stroke-linecap="round" stroke-miterlimit="10"></path><ellipse cx="16.8" cy="19.4" rx="3.2" ry="2.8"></ellipse>
	</symbol>

	<symbol id="south"  viewBox="0 0 23 23" xmlns="http://www.w3.org/2000/svg" stroke='currentColor' fill='none'>
		<ellipse cx="17.8" cy="3.7" rx="3.2" ry="2.8"></ellipse><path d="M18.7,6.6c6,5.2,2.6,15-6.2,15.6C2.9,22.7-2.3,11.8,5,6.3" stroke-linecap="round" stroke-miterlimit="10"></path><ellipse cx="6.3" cy="3.7" rx="3.2" ry="2.8"></ellipse>
	</symbol>

	<symbol  id="moon"  viewBox="0 0 23 23"  xmlns="http://www.w3.org/2000/svg"  stroke='currentColor' fill='none'>
		<path d="m5.4,20.99999c-.2.1-.4.2-.6.3,1.1.5,2.4.7,3.8.7,5.8,0,10.5-4.7,10.5-10.5.1-5.8-4.7-10.5-10.5-10.5-1.4,0-2.7.3-4,.8,3.8,1.6,6.5,5.3,6.5,9.7,0,2.1-.6,4-1.7,5.7-.8,1.6-2.3,3-4,3.8h0Z" style="fill: none; stroke-linecap: round; stroke-linejoin: round; stroke-width: 1.5px;"></path>
	</symbol>

	<symbol  id="mercury"  viewBox="0 0 23 23"  xmlns="http://www.w3.org/2000/svg" stroke='currentColor' fill='none'>
		<circle cx="11.4" cy="9.9" r="5.7"></circle><g stroke-linecap="round" stroke-miterlimit="10"><path d="M11.4 15.6v6.5"></path><path d="M9.1 18.5h4.6M6.9.9c0 1.8 2 3.3 4.5 3.3M16.2.9c0 1.8-2.1 3.3-4.8 3.3"></path></g>
	</symbol>
	
	<symbol id="venus"  viewBox="0 0 23 23"  xmlns="http://www.w3.org/2000/svg" stroke='currentColor' fill='none'>
		<circle cx="11.4" cy="7.6" r="6.7"></circle><g stroke-linecap="round" stroke-miterlimit="10"><path d="M11.3 14.6v7.5"></path><path d="M8.7 17.5H14"></path></g>
	</symbol>

	<symbol id="mars"  viewBox="0 0 23 23"  xmlns="http://www.w3.org/2000/svg" stroke='currentColor' fill='none'>
		<circle cx="9.8" cy="13.9" r="7.9"></circle><path d="M15.1 7.7l6.3-6.5M18.3 1h3.2m0 0l.3 3.3" stroke-linecap="round" stroke-miterlimit="10"></path>
	</symbol>
	
	<symbol  id="jupiter"  viewBox="0 0 23 23"  xmlns="http://www.w3.org/2000/svg"  stroke='currentColor' fill='none' stroke-linecap="round" stroke-miterlimit="10">
		<path d="M14.4 1v21.2"></path><path d="M7 6.6C4.4 3.7 7 1.9 8.5 2c1.9.1 3.1 2.4 2.8 4.4-.2 2.7-2.5 5.8-6.4 7.4l12.3.1" stroke-linejoin="round"></path>
	</symbol>

	<symbol  id="saturn"  viewBox="0 0 23 23"  xmlns="http://www.w3.org/2000/svg" stroke='currentColor' fill='none' stroke-linecap="round" stroke-miterlimit="10">
		<path d="M8.7 1v18.7"></path><path d="M5.9 3.6h5.6m-2.8 6.6c.9-2 3-3.1 5-2.7 2.5.6 3.3 3.4 2.9 5.1-.2.9-.7 1.8-2.2 3.5-1.7 1.8-2 2.2-2.5 3.1"></path><path d="M14.4 18.8c.4.4.8 1 .7 1.7-.1 1-.9 1.6-1.9 1.6s-1.7-.9-1.6-1.9c.1-.7.4-1.2.7-1.7"></path>
	</symbol>

		
</svg>	