<svg width="1200" height="1000" xmlns="http://www.w3.org/2000/svg">

 
  <g >
   <path id="svg_2" fill="#3f3f3f" d="m536,147 l52,-91 l52,91 l-104,0z"/>

    <path id="svg_8" fill="#3f3f3f" d="m640.00031,170.28573l-52,91l-52,-91l104,0z"/>

   <rect id="svg_4" y="283" x="536" width="100" height="100" fill="#393572"/>

   <rect id="svg_5" y="437.429353" x="537.999855" transform="rotate(45 587.9998168945314,487.4293518066406) " stroke="#000" width="100" height="100" fill="#767429"/>
   
   <rect id="svg_6" y="604.000002" x="538.000314" width="100" height="100" fill="#a3314b"/>
     <path stroke="null" transform="rotate(11.165912628173828 683.4948730468742,546.8657836914062) " id="svg_11" d="m639.068842,579.085025l44.42601,-64.438481l44.42601,64.438481l-88.85202,0z" fill-opacity="null" stroke-opacity="null" stroke-width="null" fill="#a3314b"/>
   <rect id="svg_7" y="733.142564" x="536.000312" width="100" height="100" fill="#393572"/>
  
   <path transform="rotate(-30 818,668) " id="svg_9" fill="#393572" d="m870,622 l-52,91 l-52,-91 l104,0z"/>
   <path transform="rotate(30 357,671) " id="svg_10" fill="#393572" d="m409,618 l-52,91 l-52,-91 l104,0z"/>
 
  
 </g>
</svg>